<svg width="20" height="20" viewBox="0 0 20 20" fill="none" xmlns="http://www.w3.org/2000/svg">
<path d="M10.8475 20H9.15995C8.54275 19.9993 7.95103 19.7539 7.51448 19.3176C7.07794 18.8813 6.83222 18.2897 6.83123 17.6725V16.89C6.83104 16.8499 6.82046 16.8105 6.80052 16.7757C6.78059 16.7408 6.75198 16.7117 6.71748 16.6912L5.87248 16.1988C5.83767 16.1788 5.79821 16.1683 5.75808 16.1683C5.71795 16.1683 5.67853 16.1788 5.64372 16.1988L4.96997 16.5875C4.70552 16.7416 4.41305 16.8415 4.1096 16.8814C3.80614 16.9214 3.49777 16.9005 3.20246 16.82C2.90634 16.7415 2.62871 16.6051 2.38562 16.4186C2.14254 16.2322 1.93882 15.9994 1.78622 15.7338L0.937449 14.2588C0.631325 13.7243 0.548924 13.0905 0.708148 12.4955C0.867371 11.9005 1.25534 11.3926 1.78748 11.0825L2.47248 10.6875C2.5074 10.667 2.53635 10.6378 2.55652 10.6028C2.57669 10.5677 2.58735 10.528 2.58746 10.4875V9.51248C2.58735 9.47202 2.57669 9.43232 2.55652 9.39724C2.53635 9.36216 2.5074 9.33296 2.47248 9.31252L1.78874 8.9175C1.25613 8.60782 0.867674 8.09998 0.708186 7.50488C0.548698 6.90979 0.631096 6.27576 0.937449 5.74123L1.78622 4.26624C1.93882 4.0006 2.14254 3.76784 2.38562 3.58139C2.62871 3.39495 2.90634 3.25853 3.20246 3.18001C3.49778 3.09916 3.80629 3.07818 4.10983 3.11832C4.41337 3.15847 4.70582 3.2589 4.96997 3.41373L5.64246 3.80123C5.67729 3.82179 5.71702 3.83266 5.75747 3.83266C5.79792 3.83266 5.83765 3.82179 5.87248 3.80123L6.71748 3.30875C6.75198 3.28826 6.78059 3.25916 6.80052 3.22433C6.82046 3.18951 6.83104 3.15014 6.83123 3.11001V2.3275C6.83222 1.7103 7.07794 1.11868 7.51448 0.682373C7.95103 0.246061 8.54275 0.000661083 9.15995 0H10.8512C11.4687 0.000330258 12.0607 0.245568 12.4975 0.681915C12.9344 1.11826 13.1802 1.71008 13.1812 2.3275V3.11001C13.1814 3.14999 13.1918 3.18927 13.2115 3.22407C13.2312 3.25886 13.2595 3.28801 13.2937 3.30875L14.14 3.80123C14.1746 3.82181 14.2141 3.8327 14.2543 3.8327C14.2946 3.8327 14.3341 3.82181 14.3687 3.80123L15.0412 3.41251C15.3057 3.25798 15.5984 3.15779 15.9022 3.11787C16.2059 3.07794 16.5145 3.09908 16.81 3.18001C17.106 3.25836 17.3835 3.39473 17.6264 3.5812C17.8693 3.76767 18.0728 4.00051 18.225 4.26624L19.0737 5.74123C19.3802 6.27561 19.4628 6.90954 19.3035 7.50462C19.1443 8.09969 18.7561 8.60761 18.2237 8.9175L17.5387 9.31252C17.5038 9.33296 17.4748 9.36216 17.4547 9.39724C17.4345 9.43232 17.4238 9.47202 17.4237 9.51248V10.4875C17.4238 10.528 17.4345 10.5677 17.4547 10.6028C17.4748 10.6378 17.5038 10.667 17.5387 10.6875L18.2225 11.0825C18.7553 11.3919 19.144 11.8998 19.3035 12.495C19.463 13.0902 19.3804 13.7243 19.0737 14.2588L18.225 15.7338C18.0728 15.9995 17.8693 16.2323 17.6264 16.4188C17.3835 16.6053 17.106 16.7416 16.81 16.82C16.5144 16.9007 16.2058 16.9215 15.902 16.8814C15.5983 16.8413 15.3057 16.7409 15.0412 16.5863L14.37 16.1988C14.3349 16.1788 14.2953 16.1683 14.255 16.1683C14.2147 16.1683 14.175 16.1788 14.14 16.1988L13.2937 16.6912C13.2595 16.712 13.2312 16.7411 13.2115 16.7759C13.1918 16.8107 13.1814 16.85 13.1812 16.89V17.6725C13.1802 18.2906 12.9338 18.883 12.4962 19.3194C12.0586 19.7559 11.4655 20.0007 10.8475 20ZM5.75247 14.9213C6.01592 14.9205 6.27483 14.9899 6.50248 15.1225L7.34748 15.6225C7.57016 15.7524 7.75493 15.9383 7.88344 16.1618C8.01195 16.3852 8.07972 16.6385 8.07997 16.8962V17.6788C8.0803 17.9656 8.1945 18.2406 8.39747 18.4434C8.60044 18.6461 8.87559 18.76 9.16247 18.76H10.8537C11.1407 18.76 11.416 18.6462 11.6192 18.4435C11.8223 18.2407 11.9368 17.9658 11.9375 17.6788V16.8962C11.9378 16.6386 12.0055 16.3856 12.1338 16.1622C12.262 15.9388 12.4464 15.7527 12.6687 15.6225L13.5137 15.1225C13.739 14.9923 13.9947 14.9237 14.255 14.9237C14.5152 14.9237 14.7709 14.9923 14.9962 15.1225L15.6675 15.51C15.7902 15.5824 15.9263 15.6294 16.0676 15.6481C16.209 15.6668 16.3526 15.6568 16.49 15.6187C16.6271 15.5831 16.7557 15.5206 16.8683 15.4347C16.981 15.3489 17.0755 15.2415 17.1462 15.1188L17.9962 13.645C18.1383 13.3964 18.1764 13.1018 18.1022 12.8252C18.028 12.5487 17.8474 12.3127 17.6 12.1687L16.9175 11.7725C16.6935 11.6427 16.5075 11.4564 16.378 11.2323C16.2486 11.0081 16.1803 10.7539 16.1799 10.495V9.52C16.1803 9.26114 16.2486 9.00691 16.378 8.78273C16.5075 8.55855 16.6935 8.37225 16.9175 8.24249L17.6012 7.84626C17.8485 7.70205 18.0287 7.46595 18.1027 7.18945C18.1767 6.91294 18.1384 6.61842 17.9962 6.37001L17.1462 4.89624C17.0755 4.77353 16.981 4.66615 16.8683 4.58031C16.7557 4.49446 16.6271 4.43188 16.49 4.39625C16.2124 4.32214 15.9167 4.36078 15.6675 4.50375L14.995 4.8925C14.7702 5.02362 14.5146 5.0927 14.2543 5.0927C13.9941 5.0927 13.7385 5.02362 13.5137 4.8925L12.6687 4.39251C12.4464 4.26229 12.262 4.07626 12.1338 3.85284C12.0055 3.62943 11.9378 3.37636 11.9375 3.11874V2.33624C11.9368 2.04924 11.8223 1.77424 11.6192 1.57154C11.416 1.36884 11.1407 1.255 10.8537 1.255H9.15995C8.87307 1.255 8.59793 1.36888 8.39495 1.57162C8.19198 1.77435 8.07779 2.04935 8.07746 2.33624V3.11874C8.0772 3.37653 8.00947 3.62976 7.88096 3.85323C7.75245 4.0767 7.56764 4.26263 7.34496 4.39251L6.49996 4.8925C6.2748 5.02323 6.01909 5.09209 5.75873 5.09209C5.49837 5.09209 5.24262 5.02323 5.01746 4.8925L4.34748 4.505C4.22437 4.43342 4.08827 4.38695 3.94709 4.36829C3.80592 4.34962 3.66244 4.35912 3.52496 4.39625C3.3877 4.43186 3.25888 4.49439 3.14601 4.58023C3.03313 4.66607 2.93845 4.77349 2.86746 4.89624L2.01747 6.37001C1.87537 6.61858 1.83731 6.91323 1.91153 7.18975C1.98576 7.46628 2.16627 7.70226 2.41374 7.84626L3.09622 8.24249C3.32021 8.37225 3.5062 8.55855 3.63562 8.78273C3.76504 9.00691 3.83336 9.26114 3.83372 9.52V10.495C3.83336 10.7539 3.76504 11.0081 3.63562 11.2323C3.5062 11.4564 3.32021 11.6427 3.09622 11.7725L2.41248 12.1687C2.16523 12.3129 1.98498 12.549 1.911 12.8255C1.83701 13.1021 1.87527 13.3966 2.01747 13.645L2.86746 15.1188C2.93845 15.2415 3.03313 15.3489 3.14601 15.4348C3.25888 15.5206 3.3877 15.5831 3.52496 15.6187C3.66228 15.6567 3.80582 15.6667 3.94709 15.6483C4.08836 15.6298 4.22452 15.5832 4.34748 15.5112L5.01872 15.1225C5.24131 14.992 5.49444 14.9226 5.75247 14.9213ZM10.0237 14.0325C8.95463 14.0312 7.92971 13.6059 7.17375 12.85C6.4178 12.094 5.99256 11.0691 5.99124 10C5.99256 8.93092 6.4178 7.90599 7.17375 7.15004C7.92971 6.39409 8.95463 5.96881 10.0237 5.96748C11.093 5.96848 12.1183 6.39363 12.8745 7.14962C13.6307 7.90561 14.0561 8.9307 14.0575 10C14.0561 11.0693 13.6307 12.0944 12.8745 12.8504C12.1183 13.6064 11.093 14.0315 10.0237 14.0325ZM10.0237 7.21375C9.28506 7.21474 8.57695 7.50862 8.05464 8.03093C7.53234 8.55324 7.23845 9.26134 7.23746 10C7.23845 10.7387 7.53234 11.4468 8.05464 11.9691C8.57695 12.4914 9.28506 12.7853 10.0237 12.7863C10.7627 12.7856 11.4713 12.4919 11.994 11.9696C12.5168 11.4473 12.8111 10.739 12.8124 10C12.8111 9.26101 12.5168 8.5527 11.994 8.0304C11.4713 7.50809 10.7627 7.21441 10.0237 7.21375Z" fill="white"/>
</svg>
